<svg id="Illustrations" xmlns="http://www.w3.org/2000/svg" viewBox="0 0 80 80"><defs><style>.cls-1{fill:#fff;}.cls-2{fill:#eef8fd;}.cls-3{fill:#dac697;}.cls-4{fill:#001e41;}</style></defs><title>Services</title><rect class="cls-1" x="7.11" y="63.11" width="65.64" height="6.12"/><path class="cls-1" d="M63.27,63.69H16.43a4,4,0,0,1-4-3.92V23.48a4,4,0,0,1,4-3.91H61.27l2.62,3.76,3.38,2.11V59.77A4,4,0,0,1,63.27,63.69Z"/><path class="cls-2" d="M12.43,40.93v2.85l.16,0,3,.61a1,1,0,0,1,.7.6c.09.25.19.5.3.74a.94.94,0,0,1-.06.92l-1.72,2.58-.09.13.11.12,1.9,1.9.11.11.14-.09,2.58-1.71a.87.87,0,0,1,.52-.16.93.93,0,0,1,.4.09c.24.11.49.21.73.3a.93.93,0,0,1,.6.7l.61,3,0,.16h3l0-.16.61-3a.91.91,0,0,1,.6-.7,6.61,6.61,0,0,0,.74-.31.9.9,0,0,1,.4-.09,1,1,0,0,1,.52.16L31,51.42l.18.08.1-.09,1.89-1.9.12-.12-.09-.13-1.72-2.58a1,1,0,0,1-.07-.92,7.15,7.15,0,0,0,.31-.74,1,1,0,0,1,.7-.6l3-.61.17,0V41.12l-2.26-.8-.94-.19a1,1,0,0,1-.7-.6c-.09-.26-.19-.5-.3-.74a.94.94,0,0,1,.07-.92l1.71-2.58.08-.13h0L33.13,35l-1.89-1.9L31.12,33l-.14.09-2.57,1.71a.92.92,0,0,1-.53.16.89.89,0,0,1-.39-.09l-.74-.3a.93.93,0,0,1-.6-.7l-.61-3,0-.16h-3l0,.16L22,33.26h0l-.13.63a1,1,0,0,1-.6.7c-.29.1-.52.2-.74.3a.93.93,0,0,1-.92-.07L17,33.12,16.89,33l-.12.11L14.87,35l-.11.12.09.13,1.71,2.58a.94.94,0,0,1,.07.92c-.11.23-.21.48-.31.74a1,1,0,0,1-.69.6l-2.31.46-.89.23ZM24,35.65a6.63,6.63,0,1,1-6.62,6.62A6.64,6.64,0,0,1,24,35.65Z"/><circle class="cls-2" cx="24" cy="42.27" r="4.75"/><path class="cls-3" d="M51.3,34.51a8.16,8.16,0,1,0-8.16-8.16A8.17,8.17,0,0,0,51.3,34.51Z"/><path class="cls-3" d="M41.35,19.4l0,.05a.94.94,0,0,1,0,1,11.77,11.77,0,0,0-1.3,3.13.93.93,0,0,1-.72.69l-2.89.58-.16,0v3l.16,0,2.89.58a.93.93,0,0,1,.72.69,12,12,0,0,0,1.3,3.14.93.93,0,0,1,0,1l-1.63,2.45-.09.13.11.12,1.9,1.9.12.11.13-.09,2.45-1.63a1,1,0,0,1,.52-.16.9.9,0,0,1,.48.14,12,12,0,0,0,3.14,1.3.93.93,0,0,1,.69.72l.58,2.89,0,.16h3l0-.16.57-2.89a.94.94,0,0,1,.7-.72,11.77,11.77,0,0,0,3.13-1.3,1,1,0,0,1,.49-.14,1,1,0,0,1,.52.16l2.44,1.63.14.09L61,37.9,62.84,36l.12-.12-.09-.13L61.24,33.3a1,1,0,0,1,0-1,11.34,11.34,0,0,0,1.3-3.14,1,1,0,0,1,.73-.69l2.88-.58.17,0v-3l-.17,0-2.88-.58a1,1,0,0,1-.73-.69,11.15,11.15,0,0,0-1.3-3.13,1,1,0,0,1,0-1L62.87,17l.09-.14-.12-.12L61,14.8l-.12-.11-.14.09-2.44,1.63a1,1,0,0,1-.52.16,1.05,1.05,0,0,1-.49-.13,11.15,11.15,0,0,0-3.13-1.3,1,1,0,0,1-.7-.73l-.57-2.88,0-.17h-3l0,.16-.59,2.89a.93.93,0,0,1-.69.72,11.77,11.77,0,0,0-3.13,1.3,1,1,0,0,1-.49.14,1,1,0,0,1-.52-.16L41.9,14.78l-.14-.09-.12.11-1.89,1.9-.12.12.09.13Zm9.95-3.09a10,10,0,1,1-10,10A10.06,10.06,0,0,1,51.3,16.31Z"/><path class="cls-4" d="M39.41,19.86l.06.1,0,.11a13.63,13.63,0,0,0-1,2.33l0,.11-.12,0-3.11.63a.93.93,0,0,0-.75.92v4.55a.92.92,0,0,0,.75.91l3.11.63.12,0,0,.11a14.07,14.07,0,0,0,1,2.34l0,.1-.06.1-1.76,2.64a.94.94,0,0,0,.11,1.18L41,39.88a.92.92,0,0,0,.66.28.94.94,0,0,0,.52-.16l2.65-1.76.1-.06.11,0a13.08,13.08,0,0,0,2.32,1l.12,0,0,.12.63,3.11a.92.92,0,0,0,.91.75h4.55a.93.93,0,0,0,.92-.75l.63-3.11,0-.12.11,0a12.87,12.87,0,0,0,2.33-1l.11,0,.1.06L60.43,40a.89.89,0,0,0,.52.16.94.94,0,0,0,.66-.27l3.22-3.22A1,1,0,0,0,65,35.49l-1.76-2.65-.07-.1.06-.1a13.23,13.23,0,0,0,1-2.34l0-.11.12,0,3.11-.63a.92.92,0,0,0,.75-.91V24.08a.93.93,0,0,0-.75-.92l-3.11-.63-.12,0,0-.11a13.63,13.63,0,0,0-1-2.33l0-.11.06-.1L65,17.22A.93.93,0,0,0,64.83,16l-3.22-3.22a.9.9,0,0,0-.66-.27,1,1,0,0,0-.52.15l-2.64,1.76-.1.07-.11-.06a12.83,12.83,0,0,0-2.33-1l-.11,0,0-.12-.63-3.11a.93.93,0,0,0-.92-.75H49a.92.92,0,0,0-.91.75l-.63,3.11,0,.12-.12,0a13.87,13.87,0,0,0-2.32,1l-.11.06-.1-.07L42.17,12.7a1,1,0,0,0-.52-.15.94.94,0,0,0-.67.27L37.77,16a.93.93,0,0,0-.12,1.18Zm.34-3.16,1.89-1.9.12-.11.14.09,2.44,1.63a1,1,0,0,0,.52.16,1,1,0,0,0,.49-.14,11.77,11.77,0,0,1,3.13-1.3.93.93,0,0,0,.69-.72l.59-2.89,0-.16h3l0,.17.57,2.88a1,1,0,0,0,.7.73,11.15,11.15,0,0,1,3.13,1.3,1.05,1.05,0,0,0,.49.13,1,1,0,0,0,.52-.16l2.44-1.63.14-.09.12.11,1.89,1.9.12.12-.09.14L61.24,19.4a1,1,0,0,0,0,1,11.15,11.15,0,0,1,1.3,3.13,1,1,0,0,0,.73.69l2.88.58.17,0v3l-.17,0-2.88.58a1,1,0,0,0-.73.69,11.34,11.34,0,0,1-1.3,3.14,1,1,0,0,0,0,1l1.63,2.45.09.13-.12.12L61,37.9l-.12.11-.14-.09-2.44-1.63a1,1,0,0,0-.52-.16,1,1,0,0,0-.49.14,11.77,11.77,0,0,1-3.13,1.3.94.94,0,0,0-.7.72l-.57,2.89,0,.16h-3l0-.16-.58-2.89a.93.93,0,0,0-.69-.72,12,12,0,0,1-3.14-1.3.9.9,0,0,0-.48-.14,1,1,0,0,0-.52.16L41.9,37.92l-.13.09-.12-.11L39.75,36l-.11-.12.09-.13,1.63-2.45a.93.93,0,0,0,0-1,12,12,0,0,1-1.3-3.14.93.93,0,0,0-.72-.69l-2.89-.58-.16,0v-3l.16,0,2.89-.58a.93.93,0,0,0,.72-.69,11.77,11.77,0,0,1,1.3-3.13.94.94,0,0,0,0-1l0-.05L39.72,17l-.09-.13Z"/><path class="cls-4" d="M51.3,36.39a10,10,0,1,0-10-10A10.05,10.05,0,0,0,51.3,36.39Zm0-18.2a8.16,8.16,0,1,1-8.16,8.16A8.17,8.17,0,0,1,51.3,18.19Z"/><path class="cls-4" d="M11.3,45.47l3.07.61.3.06-.17.25L12.77,49a1,1,0,0,0,.11,1.19l3.22,3.21a.92.92,0,0,0,.66.28.94.94,0,0,0,.52-.16l2.61-1.73.24-.17.06.29L20.81,55a.93.93,0,0,0,.92.75h4.55a.92.92,0,0,0,.91-.75l.62-3.07.06-.29.25.17,2.6,1.73a1,1,0,0,0,.52.16.91.91,0,0,0,.66-.28l3.22-3.21A1,1,0,0,0,35.24,49l-1.74-2.6-.16-.25.29-.06,3.07-.61a1,1,0,0,0,.75-.92V40a1,1,0,0,0-.75-.92l-3.07-.61-.29-.06.16-.25,1.74-2.6a1,1,0,0,0-.12-1.19L31.9,31.16a.91.91,0,0,0-.66-.28,1,1,0,0,0-.52.16l-2.6,1.73-.25.17-.06-.29-.62-3.08a.92.92,0,0,0-.91-.74H21.73a.93.93,0,0,0-.92.75l-.62,3.07-.06.29-.24-.17L17.28,31a.94.94,0,0,0-.52-.16.92.92,0,0,0-.66.28l-3.22,3.21a1,1,0,0,0-.11,1.19l1.73,2.6.17.25-.3.06-3.07.61a1,1,0,0,0-.75.92v4.55A1,1,0,0,0,11.3,45.47Zm1.29-4.73.73-.15,2.31-.46a1,1,0,0,0,.69-.6c.1-.26.2-.51.31-.74a.94.94,0,0,0-.07-.92l-1.71-2.58-.09-.13.11-.12,1.9-1.9.12-.11.13.09,2.58,1.71a.93.93,0,0,0,.92.07c.22-.1.45-.2.74-.3a1,1,0,0,0,.6-.7l.13-.63h0l.47-2.4,0-.16h3l0,.16.61,3a.93.93,0,0,0,.6.7l.74.3a.89.89,0,0,0,.39.09.92.92,0,0,0,.53-.16L31,33.12l.14-.09.12.11L33.13,35l.12.11h0l-.08.13-1.71,2.58a.94.94,0,0,0-.07.92c.11.24.21.48.3.74a1,1,0,0,0,.7.6l.94.19,2.09.42.17,0v3l-.17,0-3,.61a1,1,0,0,0-.7.6,7.15,7.15,0,0,1-.31.74,1,1,0,0,0,.07.92l1.72,2.58.09.13-.12.12-1.89,1.9-.1.09,0,0L31,51.43h0l-2.55-1.7a1,1,0,0,0-.52-.16.9.9,0,0,0-.4.09,6.61,6.61,0,0,1-.74.31.91.91,0,0,0-.6.7l-.61,3,0,.16h-3l0-.16-.61-3a.93.93,0,0,0-.6-.7c-.24-.09-.49-.19-.73-.3a.93.93,0,0,0-.4-.09.87.87,0,0,0-.52.16L17,51.43l-.14.09-.11-.11-1.9-1.9-.11-.12.09-.13,1.72-2.58a.94.94,0,0,0,.06-.92c-.11-.24-.21-.49-.3-.74a1,1,0,0,0-.7-.6l-3-.61-.16,0v-3Z"/><path class="cls-4" d="M24,48.9a6.63,6.63,0,1,0-6.62-6.63A6.64,6.64,0,0,0,24,48.9Zm0-11.38a4.75,4.75,0,1,1-4.75,4.75A4.76,4.76,0,0,1,24,37.52Z"/><path class="cls-4" d="M60.57,48.14H58a1,1,0,0,0,0,1.92h2.62a1,1,0,0,0,0-1.92Z"/><path class="cls-4" d="M44.3,54.61H60.57a1,1,0,0,0,0-1.92H44.3a1,1,0,0,0,0,1.92Z"/><path class="cls-4" d="M44.47,50.06a1,1,0,1,0-.68-.28A1,1,0,0,0,44.47,50.06Z"/><path class="cls-4" d="M49.71,49.78a1,1,0,0,0,0-1.36,1,1,0,1,0,0,1.36Z"/><path class="cls-4" d="M54.26,49.78a1,1,0,0,0,0-1.36,1,1,0,1,0,0,1.36Z"/><path class="cls-4" d="M72.91,61.81H68.16V33.18a.92.92,0,0,0-.94-.94,1,1,0,0,0-.66.27,1,1,0,0,0-.27.67V61.81H13.56v-7a.94.94,0,1,0-1.87,0v7H6.94a.94.94,0,0,0-.94.94V67.3a3.21,3.21,0,0,0,3.21,3.21H70.64a3.21,3.21,0,0,0,3.21-3.21V62.75A.94.94,0,0,0,72.91,61.81ZM35.17,65V63.69h9.5v1.53h-9.5ZM72,63.89V67.3a1.34,1.34,0,0,1-1.33,1.34H9.21A1.34,1.34,0,0,1,7.88,67.3V63.69H33.3V65a2.08,2.08,0,0,0,2.08,2.08h9.09A2.08,2.08,0,0,0,46.55,65V63.69H72Z"/><path class="cls-4" d="M12.63,30.7a1,1,0,0,0,.66-.27,1,1,0,0,0,.27-.67V24.08a3.62,3.62,0,0,1,3.62-3.62h18.2a.94.94,0,1,0,0-1.87H17.18a5.49,5.49,0,0,0-5.49,5.49v5.68a.92.92,0,0,0,.94.94Z"/></svg>