<?xml version="1.0" encoding="utf-8"?>
<!-- Generator: Adobe Illustrator 25.4.1, SVG Export Plug-In . SVG Version: 6.00 Build 0)  -->
<svg version="1.1" id="Layer_1" xmlns="http://www.w3.org/2000/svg" xmlns:xlink="http://www.w3.org/1999/xlink" x="0px" y="0px"
	 viewBox="0 0 48 48" style="enable-background:new 0 0 48 48;" xml:space="preserve">
<style type="text/css">
	.st0{fill:#00ABC7;}
	.st1{fill:#406BBA;}
</style>
<g>
	<path class="st0" d="M24.3,32.5L18,38.8c-0.9,0.9-2.2,1.5-3.5,1.5c-1.3,0-2.6-0.5-3.5-1.5l-1.4-1.4c-1.9-1.9-1.9-5.1,0-7.1l9.2-9.2
		c0.9-0.9,2.2-1.5,3.5-1.5c1.3,0,2.6,0.5,3.5,1.5l1.4,1.4c0.4,0.4,1,0.4,1.4,0c0.4-0.4,0.4-1,0-1.4l-1.4-1.4
		c-1.3-1.3-3.1-2.1-4.9-2.1c-1.9,0-3.6,0.7-5,2.1L8.1,29c-2.7,2.7-2.7,7.2,0,9.9l1.4,1.4c1.3,1.3,3.1,2.1,4.9,2.1
		c1.9,0,3.6-0.7,4.9-2.1l6.4-6.4c0.4-0.4,0.4-1,0-1.4C25.4,32.1,24.7,32.1,24.3,32.5z"/>
	<path class="st1" d="M40.6,9.2l-1.4-1.4c-1.3-1.3-3.1-2-5-2s-3.6,0.7-4.9,2l-6.4,6.4c-0.4,0.4-0.4,1,0,1.4c0.4,0.4,1,0.4,1.4,0
		l6.4-6.4c0.9-0.9,2.2-1.5,3.5-1.5c1.3,0,2.6,0.5,3.5,1.5l1.4,1.4c0.9,0.9,1.5,2.2,1.5,3.5c0,1.3-0.5,2.6-1.5,3.5L30,26.8
		c-0.9,0.9-2.2,1.5-3.5,1.5c-1.3,0-2.6-0.5-3.5-1.5c-0.4-0.4-1-0.4-1.4,0c-0.4,0.4-0.4,1,0,1.4c1.3,1.3,3.1,2.1,4.9,2.1
		c1.9,0,3.6-0.7,4.9-2.1l9.2-9.2c1.3-1.3,2.1-3.1,2.1-4.9C42.7,12.2,41.9,10.5,40.6,9.2z"/>
</g>
</svg>
