<svg id="Illustrations" xmlns="http://www.w3.org/2000/svg" viewBox="0 0 80 80"><defs><style>.cls-1{fill:#dac697;}.cls-2{fill:#ccd2d9;}.cls-3{fill:#b59d6a;}.cls-4{fill:#eef8fd;}.cls-5{fill:#001e41;}</style></defs><title>Investments</title><circle class="cls-1" cx="21.74" cy="40.95" r="3.65"/><circle class="cls-2" cx="46.13" cy="23.92" r="3.65"/><circle class="cls-3" cx="58.29" cy="40.95" r="3.65"/><circle class="cls-4" cx="33.96" cy="57.97" r="3.65"/><circle class="cls-4" cx="66.22" cy="13.55" r="3.65"/><path class="cls-5" d="M71.67,70.19H10.21l.12-.28.31-.7L20.4,47l.15-.34.06-.13h.15l.37.05.21,0a3.73,3.73,0,0,0,.46,0,5.67,5.67,0,0,0,1.82-.33l.35-.12.14,0,.09.12.21.3,5.05,7.07.22.3.08.12-.09.12-.22.29a5.72,5.72,0,1,0,7.91-1.11l-.3-.22-.12-.09.05-.14.13-.34,8-22.52.13-.35.05-.15h.15l.37,0,.2,0h.07a5.58,5.58,0,0,0,1.81-.32l.35-.12.14-.05.09.12.22.3,5,7.07.21.3.09.12-.09.12-.23.3a5.61,5.61,0,0,0-1.2,3.46,5.72,5.72,0,1,0,9-4.71l-.29-.2L61.11,36l0-.14.09-.34,4.22-15.69.1-.38,0-.15h.16l.4,0h.11a5.75,5.75,0,1,0-3.29-1l.29.2.11.08,0,.13-.09.34L59,34.71l-.11.39,0,.15h-.66a5.52,5.52,0,0,0-1.76.33l-.35.12-.14,0-.09-.12-.21-.3-5-7.07-.22-.3-.08-.12.09-.12.22-.29a5.67,5.67,0,0,0,1.21-3.47,5.73,5.73,0,1,0-11.45,0,5.67,5.67,0,0,0,2.33,4.58l.3.22.12.09,0,.13-.13.35-8,22.52-.13.36,0,.14H34.6l-.37,0-.19,0H34a5.58,5.58,0,0,0-1.81.32l-.35.12-.14.05-.09-.12-.21-.3-5.05-7.07-.22-.3L26,44.82l.09-.11.23-.3a5.63,5.63,0,0,0,1.21-3.47,5.73,5.73,0,1,0-9.44,4.32l.28.24.11.1-.06.14-.15.33-7.34,16.7L10,65l-.38.87V8.11a1.17,1.17,0,1,0-2.33,0V71.3a1.62,1.62,0,0,1,0,.19v.05a1.31,1.31,0,0,0,0,.25s0,0,.05.06l.08.12.07.12,0,.07a1.15,1.15,0,0,0,.2.13l0,0,.14.11a1.51,1.51,0,0,0,.39.07H71.67a1.16,1.16,0,0,0,0-2.32ZM62.83,13.55A3.4,3.4,0,1,1,66.22,17,3.4,3.4,0,0,1,62.83,13.55Zm-4.54,24a3.33,3.33,0,0,1,1.15.21h.1a3.4,3.4,0,1,1-1.25-.24ZM42.73,23.92a3.4,3.4,0,1,1,5.42,2.72l-.1.07a3.34,3.34,0,0,1-1.92.61A3.4,3.4,0,0,1,42.73,23.92ZM32,55.24a3.36,3.36,0,0,1,2-.67,3.43,3.43,0,1,1-2,.67ZM18.4,40.94a3.4,3.4,0,1,1,5.46,2.7h0l0,0-.09.06a3.35,3.35,0,0,1-1.95.62,3.48,3.48,0,0,1-1.23-.23h0l0,0-.06,0-.06,0h0l0,0A3.36,3.36,0,0,1,18.4,40.94Z"/></svg>