<svg id="Illustrations" xmlns="http://www.w3.org/2000/svg" viewBox="0 0 80 80"><defs><style>.cls-1{fill:none;stroke-linecap:round;stroke-linejoin:round;}.cls-1,.cls-2{stroke:#001e41;stroke-width:2.55px;}.cls-2{fill:#dac697;stroke-miterlimit:10;}.cls-3{fill:#001e41;}</style></defs><title>SMSF</title><g id="Lamps-Lights-Fire_Light-Bubbles_light-bulb-shine" data-name="Lamps-Lights-Fire / Light-Bubbles / light-bulb-shine"><g id="Group_35" data-name="Group 35"><g id="Light_35" data-name="Light 35"><path id="Shape_221" data-name="Shape 221" class="cls-1" d="M44.49,65.87H36.67"/><path id="Shape_222" data-name="Shape 222" class="cls-1" d="M47.1,60.86h-13"/><path id="Shape_223" data-name="Shape 223" class="cls-1" d="M40.58,8.28v7.51"/><path id="Shape_224" data-name="Shape 224" class="cls-1" d="M18.45,17.08,24,22.39"/><path id="Shape_225" data-name="Shape 225" class="cls-1" d="M62.71,17.08l-5.53,5.31"/><path id="Shape_226" data-name="Shape 226" class="cls-1" d="M10.58,38.32h7.83"/><path id="Shape_227" data-name="Shape 227" class="cls-1" d="M70.57,38.32H62.75"/><path id="Shape_228" data-name="Shape 228" class="cls-2" d="M56.23,38.32A15.19,15.19,0,0,0,43.74,23.59,15.8,15.8,0,0,0,26.2,32.38a14.69,14.69,0,0,0,5.43,18.26,2.44,2.44,0,0,1,1.12,2V54.6a1.28,1.28,0,0,0,1.31,1.25h13a1.27,1.27,0,0,0,1.3-1.25V52.69a2.49,2.49,0,0,1,1.12-2.06,14.83,14.83,0,0,0,6.71-12.31Z"/></g></g></g><path class="cls-3" d="M40.58,38.32a4.39,4.39,0,0,1,1,8.67v1.38a1,1,0,0,1-2,0V47a4.4,4.4,0,0,1-3.39-4.27,1,1,0,0,1,2,0,2.39,2.39,0,1,0,2.39-2.4,4.39,4.39,0,0,1-1-8.66V30.27a1,1,0,1,1,2,0v1.39A4.4,4.4,0,0,1,45,35.93a1,1,0,1,1-2,0,2.39,2.39,0,1,0-2.39,2.39Z"/></svg>