<svg id="Illustrations" xmlns="http://www.w3.org/2000/svg" viewBox="0 0 80 80"><defs><style>.cls-1{fill:#fff;}.cls-2{fill:#001e41;}.cls-3{fill:#b59d6a;}.cls-4{fill:none;}</style></defs><title>Super</title><path class="cls-1" d="M55.49,17C50.94,10.3,45.36,6.44,40.17,6.44S29.42,10.3,24.87,17a40.87,40.87,0,0,0-7,22c0,15,9,25.14,22.33,25.14S62.5,54,62.5,39A40.68,40.68,0,0,0,55.49,17Z"/><path class="cls-2" d="M57.33,58.82c4.29-4.83,6.55-11.55,6.55-19.45a43.75,43.75,0,0,0-7.55-23.69C51.48,8.53,45.59,4.42,40.17,4.42S28.88,8.53,24,15.68a44.12,44.12,0,0,0-7.57,23.69c0,16,9.53,26.79,23.71,26.79A22.22,22.22,0,0,0,57.33,58.82Zm-17.16,4.7A19.67,19.67,0,0,1,24.85,56.8c-3.79-4.36-5.8-10.4-5.8-17.46A40.36,40.36,0,0,1,26.27,17c4.27-6.16,9.6-10,13.9-10s9.63,3.83,13.9,10a40.51,40.51,0,0,1,7.22,22.33c0,7.06-2,13.1-5.8,17.46A19.67,19.67,0,0,1,40.17,63.52Z"/><path class="cls-2" d="M46.91,42.18a7.1,7.1,0,0,0-7.09-7.09,4.27,4.27,0,1,1,4.27-4.27,1.41,1.41,0,1,0,2.82,0,7,7,0,0,0-5-6.75L41.66,24l-.12,0-.24-.08-.07,0V21.34a1.41,1.41,0,1,0-2.82,0v2.52l-.07,0L38.1,24,38,24l-.25.07a7.08,7.08,0,0,0,2.09,13.85,4.27,4.27,0,1,1-4.27,4.26,1.41,1.41,0,0,0-2.82,0,7.05,7.05,0,0,0,5,6.76L38,49l.12,0,.24.07.07,0v2.51a1.41,1.41,0,1,0,2.82,0V49.15l.07,0,.24-.07.12,0,.25-.07A7.05,7.05,0,0,0,46.91,42.18Z"/><path class="cls-3" d="M11.73,62.33C15.66,67.48,26,74.47,40.42,74.47s24.76-7,28.69-12.14Z"/><path class="cls-4" d="M64.64,63.12H13l.78.77,1.17,1.16h0v0c3.1,2.59,6.16,3.83,9.83,5.19a44.8,44.8,0,0,0,15.41,2.64,44.94,44.94,0,0,0,15.4-2.63,41.93,41.93,0,0,0,9.81-5.19l0,0,0,0,1.17-1.16.78-.77H64.64Z"/><path class="cls-2" d="M68.32,60.45H12a3.84,3.84,0,0,0-2.43.73c-.43.37-.31.6-.27.68,2.4,4.74,11.94,13.72,30.85,13.72S68.62,66.6,71,61.86c0-.08.16-.31-.27-.68A3.84,3.84,0,0,0,68.32,60.45Zm-.8,2.81-.78.77-1.17,1.16h0l0,0a42.08,42.08,0,0,1-9.89,5.23,45.11,45.11,0,0,1-15.47,2.65,45,45,0,0,1-15.48-2.66C21,69.1,17.93,67.84,14.8,65.23h0l0,0L13.59,64l-.77-.77-.35-.35h55.4Z"/><path class="cls-2" d="M15.87,52.45a1.1,1.1,0,0,0-.95-.52,1.14,1.14,0,0,0-.61.18,1.1,1.1,0,0,0-.49.71,1.15,1.15,0,0,0,.15.85L18.69,61a1.13,1.13,0,0,0,1,.52,1.14,1.14,0,0,0,.61-.18,1.12,1.12,0,0,0,.49-.71,1.1,1.1,0,0,0-.16-.85Z"/><path class="cls-2" d="M13.27,60.83,9.7,56.64a1.15,1.15,0,0,0-.86-.4,1.18,1.18,0,0,0-.74.27A1.13,1.13,0,0,0,8,58.1l3.57,4.2a1.14,1.14,0,0,0,.86.39,1.08,1.08,0,0,0,.73-.27,1.11,1.11,0,0,0,.13-1.59Z"/><path class="cls-2" d="M16.65,60.2l-5.8-8.58A1.13,1.13,0,0,0,9,52.88l5.81,8.59a1.14,1.14,0,0,0,.94.5,1.1,1.1,0,0,0,.63-.2A1.13,1.13,0,0,0,16.65,60.2Z"/><path class="cls-2" d="M64.8,56.34a1.11,1.11,0,0,0,.17-.85,1.15,1.15,0,0,0-.48-.72,1.19,1.19,0,0,0-.63-.19,1.12,1.12,0,0,0-.94.51L59.1,60.83a1.1,1.1,0,0,0-.16.85,1.09,1.09,0,0,0,.48.72,1.13,1.13,0,0,0,.62.19,1.12,1.12,0,0,0,.94-.51Z"/><path class="cls-2" d="M67.46,58.41a1.13,1.13,0,1,0-1.86-1.28l-2.53,3.69a1.13,1.13,0,1,0,1.86,1.28Z"/></svg>